:FULLY-SPECIFIED
:FORCE-ALL-JOINTS-BE-3DOF
:DEGREES
340
root 8.19227 16.0729 -20.4361 10.9119 23.8499 4.14197
lfemur -8.7657 15.9572 -10.0342
ltibia 40.1872 -0 0
lfoot 6.34686 28.2618 0.0784806
ltoes -28.6997 0 0
rfemur -47.9368 -14.5668 10.0861
rtibia 55.3693 -0 0
rfoot 2.52807 -18.2518 -0.0984227
rtoes 2.30392 -0 0
lowerback -0.912584 -1.82049 -1.5905
upperback 1.76107 -2.39055 -0.066504
thorax 2.38326 -1.21953 0.752548
lowerneck -5.61061 -8.66276 -0.566311
upperneck -2.10815 -11.5336 6.57396
head 0.727933 -5.70695 1.85321
lclavicle -0 0 0
lhumerus -48.2478 -34.5641 109.672
lradius 57.3385 -0 0
lwrist 20.0809 0 0
lhand 6.10048 12.1102 0.0158178
lfingers 0 -0 0
lthumb 31.417 39.4124 0.00863112
rclavicle -0 0 0
rhumerus -22.3205 19.2554 -73.6825
rradius 84.7574 -0 0
rwrist 2.56875 0 0
rhand 4.34056 -9.94247 1.00303
rfingers 0 -0 0
rthumb 29.5517 -35.7152 1.58579
341
root 8.12863 16.1055 -20.2554 10.6688 22.174 3.53476
lfemur -8.11735 14.6811 -9.29407
ltibia 40.6002 -0 0
lfoot 7.87374 28.753 0.0784806
ltoes -26.9735 0 0
rfemur -47.7869 -15.1723 11.918
rtibia 55.0269 -0 0
rfoot 1.59021 -17.2491 -0.0984227
rtoes -0.14969 0 0
lowerback -1.10725 -1.72988 -1.34934
upperback 1.70055 -2.27536 0.0549478
thorax 2.42273 -1.15898 0.740796
lowerneck -5.8162 -8.38597 -0.583434
upperneck -1.76163 -11.1835 6.47673
head 0.854584 -5.52158 1.82009
lclavicle -0 0 0
lhumerus -48.195 -33.5103 109.363
lradius 57.0692 -0 0
lwrist 20.3037 0 0
lhand 5.50683 11.8557 0.0158178
lfingers 0 -0 0
lthumb 30.8512 39.2667 0.00863112
rclavicle -0 0 0
rhumerus -23.8598 18.5834 -75.6818
rradius 84.6093 -0 0
rwrist 2.49407 0 0
rhand -1.74306 -11.5363 1.00303
rfingers 0 -0 0
rthumb 23.7364 -38.3528 1.58579
342
root 8.06498 16.1381 -20.0747 10.4474 20.496 2.94205
lfemur -7.48961 13.3971 -8.57292
ltibia 41.0132 -0 0
lfoot 9.40057 29.244 0.0653919
ltoes -25.2474 0 0
rfemur -47.6568 -15.7821 13.7537
rtibia 54.6845 -0 0
rfoot 0.652502 -16.2465 -0.0820111
rtoes -2.6033 0 0
lowerback -1.30153 -1.63844 -1.1085
upperback 1.64027 -2.16004 0.176268
thorax 2.46219 -1.09843 0.729086
lowerneck -6.02173 -8.10923 -0.601548
upperneck -1.41612 -10.8329 6.38178
head 0.981089 -5.33613 1.7874
lclavicle -0 0 0
lhumerus -48.1494 -32.4563 109.058
lradius 56.7999 -0 0
lwrist 20.5265 0 0
lhand 4.91317 11.6013 0.0131812
lfingers 0 -0 0
lthumb 30.2855 39.121 0.00719248
rclavicle -0 0 0
rhumerus -25.3673 17.8613 -77.6533
rradius 84.4612 -0 0
rwrist 2.41938 0 0
rhand -7.82418 -13.121 0.834167
rfingers 0 -0 0
rthumb 17.9275 -40.9767 1.31874
343
root 8.00134 16.1706 -19.8941 10.2466 18.8159 2.36236
lfemur -6.88162 12.1057 -7.86986
ltibia 41.4263 -0 0
lfoot 10.9272 29.7346 0.0392249
ltoes -23.5213 0 0
rfemur -47.5466 -16.3957 15.5936
rtibia 54.3421 -0 0
rfoot -0.284778 -15.2443 -0.0491972
rtoes -5.05691 0 0
lowerback -1.49541 -1.54619 -0.867982
upperback 1.58024 -2.04459 0.297458
thorax 2.50164 -1.03786 0.717417
lowerneck -6.22721 -7.83256 -0.620652
upperneck -1.07161 -10.4818 6.28908
head 1.10745 -5.15062 1.75512
lclavicle -0 0 0
lhumerus -48.111 -31.4022 108.758
lradius 56.5306 -0 0
lwrist 20.7493 0 0
lhand 4.31954 11.3468 0.00790838
lfingers 0 -0 0
lthumb 29.7197 38.9753 0.00431534
rclavicle -0 0 0
rhumerus -26.8418 17.0907 -79.5963
rradius 84.3132 -0 0
rwrist 2.34469 0 0
rhand -13.898 -14.6789 0.498484
rfingers 0 -0 0
rthumb 12.1377 -43.5598 0.787974
344
root 7.93769 16.2032 -19.7134 10.0655 17.134 1.79433
lfemur -6.2926 10.8071 -7.184
ltibia 41.8393 0 0
lfoot 12.4536 30.2242 0
ltoes -21.7952 0 0
rfemur -47.4568 -17.0123 17.4382
rtibia 53.9997 0 0
rfoot -1.22134 -14.2428 0
rtoes -7.51052 0 0
lowerback -1.6889 -1.45313 -0.62779
upperback 1.52046 -1.92902 0.418519
thorax 2.54107 -0.977288 0.705791
lowerneck -6.43265 -7.55596 -0.640744
upperneck -0.728057 -10.1301 6.19864
head 1.23367 -4.96503 1.72327
lclavicle 1.09829e-14 -8.34896e-15 0
lhumerus -48.0794 -30.3479 108.462
lradius 56.2613 0 0
lwrist 20.9721 0 0
lhand 3.72593 11.0925 0
lfingers 7.12502 0 0
lthumb 29.154 38.8297 0
rclavicle 1.09829e-14 -8.34896e-15 0
rhumerus -28.2821 16.2733 -81.5099
rradius 84.1651 0 0
rwrist 2.27 0 0
rhand -19.9603 -16.1925 0
rfingers 7.12502 0 0
rthumb 6.37809 -766.076 0
345
root 7.85829 16.2273 -19.5495 9.65103 15.6729 1.35957
lfemur -6.37174 10.4846 -6.56545
ltibia 43.6674 -0 0
lfoot 12.543 28.1337 -0.00982667
ltoes -15.7811 0 0
rfemur -46.3864 -17.2595 18.477
rtibia 53.3808 -0 0
rfoot -2.61674 -12.8113 -0.104971
rtoes -6.45554 0 0
lowerback -1.43998 -1.37085 -0.569564
upperback 1.5795 -1.82355 0.526257
thorax 2.46124 -0.925182 0.791356
lowerneck -6.51197 -7.31092 -0.627784
upperneck -0.466316 -9.81484 6.01714
head 1.3106 -4.80386 1.67103
lclavicle 0 0 0
lhumerus -47.8855 -29.799 108.163
lradius 56.1664 -0 0
lwrist 20.5188 0 0
lhand 3.02906 10.8785 0.00781403
lfingers 0 -0 0
lthumb 28.4872 38.7181 0.00389729
rclavicle 0 0 0
rhumerus -29.439 15.5099 -82.7994
rradius 83.5627 -0 0
rwrist 2.90195 0 0
rhand -24.0221 -20.3438 0.911939
rfingers 0 -0 0
rthumb 2.45666 -50.0833 0.847931
346
root 7.77889 16.2514 -19.3856 9.25082 14.2088 0.938669
lfemur -6.45434 10.1629 -5.94709
ltibia 45.4954 -0 0
lfoot 12.6327 26.0432 -0.0163851
ltoes -9.76697 0 0
rfemur -45.3194 -17.5251 19.5122
rtibia 52.762 -0 0
rfoot -4.01433 -11.3778 -0.175023
rtoes -5.40056 0 0
lowerback -1.19099 -1.28883 -0.510983
upperback 1.63873 -1.71818 0.634098
thorax 2.38149 -0.872957 0.876846
lowerneck -6.59119 -7.06587 -0.615172
upperneck -0.205835 -9.49876 5.83728
head 1.38736 -4.64263 1.61902
lclavicle 0 0 0
lhumerus -47.6959 -29.2493 107.867
lradius 56.0715 -0 0
lwrist 20.0656 0 0
lhand 2.33216 10.6643 0.0130241
lfingers 0 -0 0
lthumb 27.8203 38.6065 0.00649579
rclavicle 0 0 0
rhumerus -30.5737 14.7218 -84.0679
rradius 82.9604 -0 0
rwrist 3.5339 0 0
rhand -28.1404 -24.5504 1.52535
rfingers 0 -0 0
rthumb -1.51534 -54.1402 1.41793
